<!-- <svg id="wave" style="transform:rotate(0deg); transition: 0.3s" viewBox="0 0 1800 220" version="1.1" xmlns="http://www.w3.org/2000/svg"><defs><linearGradient id="sw-gradient-0" x1="0" x2="0" y1="1" y2="0"><stop stop-color="#cafff2" offset="0%"></stop><stop stop-color="#FFF" offset="40%"></stop></linearGradient></defs><path style="transform:translate(0, 0px); opacity:1" fill="url(#sw-gradient-0)" d="M0,252L14.1,214.7C28.2,177,56,103,85,102.7C112.9,103,141,177,169,191.3C197.6,205,226,159,254,144.7C282.4,131,311,149,339,140C367.1,131,395,93,424,98C451.8,103,480,149,508,149.3C536.5,149,565,103,593,107.3C621.2,112,649,168,678,191.3C705.9,215,734,205,762,182C790.6,159,819,121,847,116.7C875.3,112,904,140,932,135.3C960,131,988,93,1016,93.3C1044.7,93,1073,131,1101,121.3C1129.4,112,1158,56,1186,32.7C1214.1,9,1242,19,1271,32.7C1298.8,47,1327,65,1355,102.7C1383.5,140,1412,196,1440,191.3C1468.2,187,1496,121,1525,102.7C1552.9,84,1581,112,1609,130.7C1637.6,149,1666,159,1694,149.3C1722.4,140,1751,112,1779,116.7C1807.1,121,1835,159,1864,144.7C1891.8,131,1920,65,1948,46.7C1976.5,28,2005,56,2019,70L2032.9,84L2032.9,280L2018.8,280C2004.7,280,1976,280,1948,280C1920,280,1892,280,1864,280C1835.3,280,1807,280,1779,280C1750.6,280,1722,280,1694,280C1665.9,280,1638,280,1609,280C1581.2,280,1553,280,1525,280C1496.5,280,1468,280,1440,280C1411.8,280,1384,280,1355,280C1327.1,280,1299,280,1271,280C1242.4,280,1214,280,1186,280C1157.6,280,1129,280,1101,280C1072.9,280,1045,280,1016,280C988.2,280,960,280,932,280C903.5,280,875,280,847,280C818.8,280,791,280,762,280C734.1,280,706,280,678,280C649.4,280,621,280,593,280C564.7,280,536,280,508,280C480,280,452,280,424,280C395.3,280,367,280,339,280C310.6,280,282,280,254,280C225.9,280,198,280,169,280C141.2,280,113,280,85,280C56.5,280,28,280,14,280L0,280Z"></path></svg> -->

<svg id="wave" style="transform:rotate(0deg); transition: 0.3s" viewBox="0 0 1800 220" version="1.1" xmlns="http://www.w3.org/2000/svg"><defs><linearGradient id="sw-gradient-0" x1="0" x2="0" y1="1" y2="0"><stop stop-color="#fff" offset="0%"></stop><stop stop-color="#5abaff" offset="40%"></stop></linearGradient></defs><path style="transform:translate(0, 0px); opacity:1" fill="url(#sw-gradient-0)" d="M0,252L14.1,214.7C28.2,177,56,103,85,102.7C112.9,103,141,177,169,191.3C197.6,205,226,159,254,144.7C282.4,131,311,149,339,140C367.1,131,395,93,424,98C451.8,103,480,149,508,149.3C536.5,149,565,103,593,107.3C621.2,112,649,168,678,191.3C705.9,215,734,205,762,182C790.6,159,819,121,847,116.7C875.3,112,904,140,932,135.3C960,131,988,93,1016,93.3C1044.7,93,1073,131,1101,121.3C1129.4,112,1158,56,1186,32.7C1214.1,9,1242,19,1271,32.7C1298.8,47,1327,65,1355,102.7C1383.5,140,1412,196,1440,191.3C1468.2,187,1496,121,1525,102.7C1552.9,84,1581,112,1609,130.7C1637.6,149,1666,159,1694,149.3C1722.4,140,1751,112,1779,116.7C1807.1,121,1835,159,1864,144.7C1891.8,131,1920,65,1948,46.7C1976.5,28,2005,56,2019,70L2032.9,84L2032.9,280L2018.8,280C2004.7,280,1976,280,1948,280C1920,280,1892,280,1864,280C1835.3,280,1807,280,1779,280C1750.6,280,1722,280,1694,280C1665.9,280,1638,280,1609,280C1581.2,280,1553,280,1525,280C1496.5,280,1468,280,1440,280C1411.8,280,1384,280,1355,280C1327.1,280,1299,280,1271,280C1242.4,280,1214,280,1186,280C1157.6,280,1129,280,1101,280C1072.9,280,1045,280,1016,280C988.2,280,960,280,932,280C903.5,280,875,280,847,280C818.8,280,791,280,762,280C734.1,280,706,280,678,280C649.4,280,621,280,593,280C564.7,280,536,280,508,280C480,280,452,280,424,280C395.3,280,367,280,339,280C310.6,280,282,280,254,280C225.9,280,198,280,169,280C141.2,280,113,280,85,280C56.5,280,28,280,14,280L0,280Z"></path></svg>